HIERARCHY
ROOT root
{
	OFFSET 0.000000 0.000000 0.000000
	CHANNELS 6 Xposition Yposition Zposition Zrotation Yrotation Xrotation
	JOINT lhip
	{
		OFFSET 0.058581 -0.082280 -0.017664
		CHANNELS 3 Zrotation Yrotation Xrotation
		JOINT lknee
		{
			OFFSET 0.043451 -0.386469 0.008037
			CHANNELS 3 Zrotation Yrotation Xrotation
			JOINT lankle
			{
				OFFSET -0.014790 -0.426874 -0.037428
				CHANNELS 3 Zrotation Yrotation Xrotation
				JOINT ltoe
				{
					OFFSET 0.041054 -0.060286 0.122042
					CHANNELS 3 Zrotation Yrotation Xrotation
					End Site
					{
						OFFSET 0.000000 0.000000 0.000000
					}
				}
			}
		}
	}
	JOINT rhip
	{
		OFFSET -0.060310 -0.090513 -0.013543
		CHANNELS 3 Zrotation Yrotation Xrotation
		JOINT rknee
		{
			OFFSET -0.043257 -0.383688 -0.004843
			CHANNELS 3 Zrotation Yrotation Xrotation
			JOINT rankle
			{
				OFFSET 0.019056 -0.420046 -0.034562
				CHANNELS 3 Zrotation Yrotation Xrotation
				JOINT rtoe
				{
					OFFSET -0.034840 -0.062106 0.130323
					CHANNELS 3 Zrotation Yrotation Xrotation
					End Site
					{
						OFFSET 0.000000 0.000000 0.000000
					}
				}
			}
		}
	}
	JOINT lowerback
	{
		OFFSET 0.004439 0.124404 -0.038385
		CHANNELS 3 Zrotation Yrotation Xrotation
		JOINT upperback
		{
			OFFSET 0.004488 0.137956 0.026820
			CHANNELS 3 Zrotation Yrotation Xrotation
			JOINT chest
			{
				OFFSET -0.002265 0.056032 0.002855
				CHANNELS 3 Zrotation Yrotation Xrotation
				JOINT lowerneck
				{
					OFFSET -0.013390 0.211636 -0.033468
					CHANNELS 3 Zrotation Yrotation Xrotation
					JOINT upperneck
					{
						OFFSET 0.010113 0.088937 0.050410
						CHANNELS 3 Zrotation Yrotation Xrotation
						End Site
						{
							OFFSET 0.000000 0.000000 0.000000
						}
					}
				}
				JOINT lclavicle
				{
					OFFSET 0.071702 0.114000 -0.018898
					CHANNELS 3 Zrotation Yrotation Xrotation
					JOINT lshoulder
					{
						OFFSET 0.122921 0.045205 -0.019046
						CHANNELS 3 Zrotation Yrotation Xrotation
						JOINT lelbow
						{
							OFFSET 0.255332 -0.015649 -0.022946
							CHANNELS 3 Zrotation Yrotation Xrotation
							JOINT lwrist
							{
								OFFSET 0.265709 0.012698 -0.007375
								CHANNELS 3 Zrotation Yrotation Xrotation
								End Site
								{
									OFFSET 0.000000 0.000000 0.000000
								}
							}
						}
					}
				}
				JOINT rclavicle
				{
					OFFSET -0.082954 0.112472 -0.023707
					CHANNELS 3 Zrotation Yrotation Xrotation
					JOINT rshoulder
					{
						OFFSET -0.113228 0.046853 -0.008472
						CHANNELS 3 Zrotation Yrotation Xrotation
						JOINT relbow
						{
							OFFSET -0.260127 -0.014369 -0.031269
							CHANNELS 3 Zrotation Yrotation Xrotation
							JOINT rwrist
							{
								OFFSET -0.269108 0.006794 -0.006027
								CHANNELS 3 Zrotation Yrotation Xrotation
								End Site
								{
									OFFSET 0.000000 0.000000 0.000000
								}
							}
						}
					}
				}
			}
		}
	}
}
MOTION
Frames: 10
Frame Time: 0.033333
-1.907838 0.785036 0.965734 99.442979 0.092613 96.492381 -1.306065 -4.649084 15.390424 -3.868322 -14.558847 22.234708 -1.660766 12.682516 16.181736 0.000000 -0.000000 0.000000 -2.534861 5.950483 -40.798947 0.390046 -8.896827 44.020317 -1.520304 -13.560231 -17.000069 0.000000 -0.000000 0.000000 -2.059324 -13.093134 5.672461 5.778952 -3.889587 2.447536 1.326437 -4.530864 -0.784748 -5.485540 3.835702 -6.834919 4.850356 3.731185 -14.359444 -7.337113 8.742298 -3.091126 -73.870106 -17.465013 31.246163 -163.123455 -73.954400 178.542874 20.733867 -11.884901 -13.349902 11.885152 -18.111055 0.645759 54.128833 -24.756332 12.665861 51.040253 75.237500 72.388940 -11.967062 14.758046 8.393895 
-1.828653 0.781784 0.968583 97.942910 -0.150637 96.112823 -1.792303 -4.993408 13.060346 -5.235275 -10.081576 33.375287 0.182693 14.339734 8.334121 0.000000 -0.000000 0.000000 -1.129919 5.690980 -36.522200 1.323173 -7.841056 33.167600 -0.688925 -11.950123 -17.652206 0.000000 -0.000000 0.000000 -1.792926 -11.035903 4.801423 5.827449 -4.469088 2.881249 0.543970 -4.429689 -0.305016 -5.041643 4.426744 -7.217574 3.941610 3.569006 -13.844047 -7.003292 10.594187 -1.668318 -73.369841 -15.001872 31.507348 -148.800767 -74.854698 164.834485 18.816518 -12.718270 -15.562836 12.615732 -18.052176 0.526706 56.755990 -21.574339 11.921071 53.688114 76.079992 75.329450 -11.910218 14.904085 8.509098 
-1.755011 0.778908 0.962090 95.594682 -0.159143 95.587029 -1.773943 -5.854028 7.431928 -7.220671 -4.076792 50.243528 -2.212407 14.299755 5.969489 0.000000 -0.000000 0.000000 0.404210 6.698902 -33.118057 1.301908 -8.452791 31.774909 -0.422683 -11.710427 -16.000921 0.000000 -0.000000 0.000000 -1.907453 -8.930587 5.467666 6.013236 -4.117605 4.040699 0.227994 -2.700043 -1.733689 -4.966789 3.392943 -7.562112 3.950786 2.846475 -13.609268 -9.041014 10.619298 1.016802 -70.693306 -11.645299 29.718089 -136.591584 -75.568203 152.737827 15.884659 -12.941712 -14.583125 16.748470 -17.129160 0.218462 57.144807 -16.175564 9.815521 58.690519 78.417832 78.308735 -12.150722 15.277552 12.284897 
-1.663707 0.776908 0.938761 90.570698 -0.503003 94.676040 -1.623200 -7.200881 -2.282730 -6.916999 5.743605 74.020043 0.403389 17.246600 -1.609187 0.000000 -0.000000 0.000000 1.966270 9.873803 -29.462244 1.633069 -6.791426 38.152228 -5.854032 -12.073644 -19.331583 0.000000 -0.000000 0.000000 -2.911817 -5.746866 5.026927 6.407633 -2.760661 6.997684 -0.121746 -1.020669 -2.534670 -4.261424 1.875442 -6.477437 3.516516 3.248445 -15.749788 -11.129957 11.396094 2.706986 -66.900214 -5.331843 27.224716 -118.372438 -78.327548 136.392404 12.464034 -10.580040 -18.281192 20.867401 -11.769326 -1.402240 56.241476 -7.045485 11.231391 73.700642 85.346764 93.659755 -14.719738 15.218925 10.354966 
-1.612109 0.776071 0.924185 86.631247 0.045615 93.161373 -0.506684 -7.307617 -8.193807 -6.534287 10.122205 87.061179 2.875356 17.139972 -6.049602 0.000000 -0.000000 0.000000 3.923105 12.305028 -27.499749 1.192676 -5.605956 44.695710 -5.955353 -12.420190 -22.559011 0.000000 -0.000000 0.000000 -2.700559 -4.157600 7.323734 6.106460 -1.292632 7.053109 -0.305491 0.250959 -1.775437 -2.469431 2.421800 -7.974126 2.031502 3.068165 -16.267541 -11.906983 13.355968 1.169894 -64.339829 -0.638747 25.700742 -97.926847 -79.349487 116.966868 10.652126 -8.847151 -18.182276 22.883197 -7.970584 -2.724033 54.356845 1.541221 12.936049 135.435164 87.576535 155.480632 -17.958621 14.826521 8.836232 
-1.542717 0.774368 0.911630 80.357761 0.162660 91.656190 1.574870 -6.216930 -17.502693 -5.559107 14.786316 98.559644 3.769333 18.217349 -10.290063 0.000000 -0.000000 0.000000 5.910460 13.021305 -21.693894 2.726208 -1.705600 47.648096 -6.191706 -12.628439 -27.897645 0.000000 -0.000000 0.000000 -2.608606 -1.602163 9.839970 5.189531 0.210092 6.965273 -1.007330 2.530843 -1.343946 -0.021308 2.217394 -9.509777 0.736914 4.397351 -16.030376 -13.025921 16.684881 1.322216 -58.917215 3.865148 22.032747 -75.833708 -77.447488 94.945192 11.233603 -6.054028 -19.436176 23.674908 -4.544428 -1.976348 52.066459 17.034361 11.914419 167.172829 85.159559 -172.356135 -23.339919 14.409312 10.472078 
-1.466164 0.773158 0.912214 75.417686 -1.443534 91.522202 2.748251 -6.092761 -27.129953 -3.127761 18.006384 102.547979 4.791649 17.638371 -12.606785 0.000000 -0.000000 0.000000 5.406204 11.737361 -14.760298 2.726848 3.186154 46.576819 -5.099978 -11.231670 -31.453304 0.000000 -0.000000 0.000000 -3.094587 1.816627 9.790381 3.365644 0.237556 7.154292 -1.980849 4.257805 -2.336546 2.255734 1.780933 -7.244263 1.266338 4.883700 -17.930974 -12.290077 19.013946 2.039791 -54.163978 10.297424 19.656412 -65.951278 -76.125421 85.355926 7.444611 -5.369291 -21.208472 21.838483 -0.700681 -0.016041 51.984366 27.323957 11.658319 -162.067956 80.781881 -140.710406 -24.161486 15.950537 11.624446 
-1.385563 0.772665 0.926012 72.616358 -3.116408 92.507380 3.859249 -6.826992 -35.797128 -0.469913 19.576995 98.177289 7.533832 17.268575 -11.422758 0.000000 -0.000000 0.000000 3.569873 10.177422 -7.232092 1.877960 8.207461 41.448371 -2.745498 -9.125589 -29.876329 0.000000 -0.000000 0.000000 -3.387193 5.273880 8.265260 1.665200 0.169021 7.207874 -2.815872 5.204136 -2.851025 4.086382 0.653838 -6.072005 1.895936 3.805958 -18.443909 -10.717220 19.642515 1.983625 -50.975400 16.395578 19.631114 -63.296192 -76.045053 85.021658 7.766662 -6.162286 -22.432422 19.159500 1.264830 -0.411627 53.047384 32.147136 12.464069 -154.341541 75.485760 -132.544616 -27.824261 16.152007 11.211885 
-1.299973 0.772387 0.950742 71.506964 -4.556654 94.252882 4.612260 -8.859368 -41.679946 -0.729646 20.769258 86.123165 8.712681 16.115354 -10.750155 0.000000 -0.000000 0.000000 0.347228 8.634598 -1.726410 1.077939 10.869076 36.426034 1.325274 -5.232210 -21.172639 0.000000 -0.000000 0.000000 -4.132915 8.235339 6.244784 0.966009 -0.178468 6.128364 -3.499986 5.311542 -2.976754 5.322777 -0.422731 -5.304060 2.363783 2.743080 -18.630169 -8.791652 21.228415 2.275816 -50.152035 20.872858 20.538452 -60.527746 -76.545695 83.231235 8.267259 -5.945619 -25.644564 17.830699 0.679000 -1.112096 54.720237 32.314762 14.712097 -156.330287 70.505660 -135.118870 -30.166433 16.022164 7.407376 
-1.190366 0.769210 0.987465 71.738025 -4.392942 95.285454 5.344377 -10.233550 -41.518448 -2.012552 19.936903 62.910388 9.606704 15.612093 -11.712159 0.000000 -0.000000 0.000000 -3.146737 5.880851 3.051554 0.817720 9.395384 31.519493 9.290110 -0.201513 0.491245 0.000000 -0.000000 0.000000 -4.502587 10.274741 4.638148 2.163573 -0.396016 4.402208 -3.827080 5.376154 -2.257647 5.344555 -1.107071 -5.847550 2.534922 0.547618 -16.784372 -7.000279 24.391444 2.507021 -52.172005 22.973574 20.537595 -60.603144 -76.486249 83.362731 8.465177 -6.623335 -26.408516 18.794586 -3.018716 -1.657150 55.285898 30.216652 15.200763 -168.433803 68.073602 -148.383990 -29.894539 16.443456 10.250557 
